<?xml version="1.0" standalone="no"?>
<!DOCTYPE svg PUBLIC "-//W3C//DTD SVG 20010904//EN"
 "http://www.w3.org/TR/2001/REC-SVG-20010904/DTD/svg10.dtd">
<svg version="1.0" xmlns="http://www.w3.org/2000/svg"
 width="547.000000pt" height="480.000000pt" viewBox="0 0 547.000000 480.000000"
 preserveAspectRatio="xMidYMid meet">

<g transform="translate(0.000000,480.000000) scale(0.100000,-0.100000)"
fill="#000000" stroke="none">
<path d="M1390 2674 c-30 -31 -46 -52 -35 -46 19 10 55 46 84 85 25 32 5 17
-49 -39z"/>
<path d="M3970 2699 c-28 -11 -40 -26 -40 -52 0 -23 -21 -44 -46 -49 -10 -2
-22 -9 -25 -17 -4 -11 -8 -10 -22 3 -16 16 -17 16 -17 -3 0 -14 -6 -21 -19
-21 -11 0 -21 3 -24 8 -2 4 -2 2 -1 -5 7 -29 -16 -21 -25 9 -5 18 -10 27 -10
20 -1 -8 -6 -10 -13 -6 -7 4 -5 -2 5 -13 15 -17 16 -21 3 -26 -8 -3 -17 1 -20
8 -3 8 -14 12 -25 10 -11 -2 -23 0 -26 5 -7 12 30 32 41 22 5 -4 2 1 -5 11 -7
9 -21 17 -30 17 -13 0 -13 -2 -2 -9 8 -5 9 -11 3 -15 -6 -3 -13 -2 -17 4 -3 5
-17 10 -31 10 -14 0 -22 -4 -19 -10 3 -5 0 -7 -9 -4 -8 3 -59 -1 -113 -9 -54
-9 -124 -18 -156 -22 -52 -6 -57 -8 -45 -23 10 -12 10 -14 1 -8 -7 4 -13 3
-13 -2 0 -6 -6 -12 -14 -15 -10 -4 -13 1 -10 16 4 19 3 18 -6 -3 -7 -15 -7
-26 -2 -28 6 -2 7 -12 5 -23 -4 -13 -8 -16 -13 -10 -3 7 -14 9 -23 5 -9 -3
-14 -10 -11 -15 3 -5 -2 -6 -10 -3 -9 3 -16 10 -16 14 0 5 -10 11 -22 13 -22
4 -22 4 -2 6 12 0 28 9 35 19 12 15 12 16 -1 6 -23 -16 -57 -15 -57 2 0 8 6
13 14 10 7 -3 13 -1 13 4 0 6 -9 10 -20 10 -11 0 -20 -5 -20 -10 0 -6 -8 -5
-20 2 -15 10 -22 10 -32 0 -9 -9 -8 -12 5 -12 11 0 14 -5 10 -17 -5 -12 -3
-14 7 -8 9 5 11 4 6 -4 -4 -6 -11 -9 -16 -6 -15 9 -40 -7 -40 -26 0 -13 -5
-17 -17 -12 -12 5 -14 3 -8 -7 5 -9 4 -11 -3 -6 -7 4 -12 2 -12 -5 0 -7 -7 -4
-16 7 -8 10 -13 13 -9 7 3 -7 1 -13 -4 -13 -6 0 -11 6 -11 13 -1 6 -14 -15
-29 -48 -47 -100 -117 -148 -219 -148 -105 0 -200 94 -210 209 l-5 55 -84 -6
c-46 -4 -100 -6 -121 -5 -20 0 -46 0 -57 0 -33 0 -97 2 -147 5 -39 2 -48 0
-49 -14 0 -14 -1 -14 -7 0 -6 13 -25 16 -87 18 -44 1 -100 4 -125 6 -25 2 -85
7 -135 10 -49 4 -119 13 -155 21 -61 13 -160 18 -132 7 6 -2 9 -10 6 -15 -4
-6 -2 -8 4 -4 6 3 13 2 16 -3 3 -5 -1 -12 -10 -15 -8 -3 -12 -10 -9 -16 3 -6
-1 -7 -9 -4 -9 3 -16 10 -16 15 0 5 -4 9 -10 9 -5 0 -10 -7 -10 -15 0 -8 5
-15 10 -15 6 0 10 -8 9 -17 0 -11 -3 -13 -6 -5 -5 13 -23 7 -23 -9 0 -15 28
-10 38 8 9 16 11 16 27 0 15 -16 15 -18 -4 -25 -11 -4 31 -7 92 -8 96 0 122
-4 187 -28 41 -15 83 -28 92 -29 9 -1 15 -3 13 -6 -3 -2 16 -19 43 -36 148
-100 242 -279 245 -465 1 -107 -14 -173 -65 -278 -56 -119 -133 -193 -268
-261 -56 -28 -111 -51 -121 -51 -11 0 -18 -3 -16 -7 3 -5 -39 -7 -94 -5 -64 2
-99 0 -99 -7 0 -6 -7 -8 -15 -5 -8 4 -12 10 -9 15 3 5 -4 9 -15 9 -10 0 -21
-3 -24 -7 -2 -5 -2 -2 -1 5 2 6 -2 12 -9 12 -28 0 -165 74 -221 120 -117 95
-191 245 -203 407 -10 143 33 278 126 400 23 29 33 48 23 42 -22 -14 -76 5
-67 23 4 7 -8 -3 -25 -22 -147 -166 -183 -485 -78 -694 44 -87 87 -148 100
-140 6 4 8 3 5 -3 -9 -15 66 -88 137 -134 71 -47 147 -76 246 -96 180 -35 409
30 538 154 31 30 52 52 46 49 -7 -3 -14 0 -16 7 -7 17 2 38 13 31 5 -3 9 0 9
5 0 6 -10 11 -21 11 -18 0 -19 2 -9 15 7 8 17 12 23 8 6 -4 7 -1 2 7 -5 8 -3
11 6 8 8 -3 23 -1 33 4 20 11 20 5 1 -47 -13 -36 67 79 91 131 13 28 31 87 41
131 l17 81 112 46 c165 69 207 105 238 208 7 25 125 58 207 58 39 0 99 -7 135
-16 l64 -16 31 -65 c39 -81 85 -116 225 -169 80 -30 106 -44 109 -59 25 -136
44 -194 87 -263 17 -28 22 -31 36 -20 13 11 14 10 3 -9 -10 -20 -5 -29 66
-100 183 -185 439 -245 686 -162 88 29 171 83 246 158 64 63 64 64 40 74 -14
5 -19 11 -11 14 6 3 9 9 6 14 -3 6 -11 5 -20 -2 -21 -18 -17 4 6 29 21 23 36
30 25 12 -3 -5 1 -10 9 -10 15 0 20 -11 17 -35 -1 -5 6 -1 15 10 25 31 74 139
90 197 15 58 20 278 5 278 -4 0 -6 11 -4 23 7 34 -37 152 -81 221 -35 54 -38
57 -55 42 -10 -9 -27 -16 -39 -16 -20 0 -19 -4 18 -61 62 -96 82 -159 88 -278
3 -63 0 -125 -7 -160 -17 -78 -81 -207 -131 -263 -62 -71 -177 -143 -276 -174
-77 -24 -95 -26 -187 -21 -117 7 -140 10 -147 17 -3 3 -41 23 -85 45 -399 199
-435 754 -64 1006 93 63 194 93 319 93 115 1 167 -12 275 -68 33 -17 63 -32
68 -34 4 -2 7 3 7 10 0 8 11 21 25 28 20 11 27 11 42 -1 21 -16 21 -16 -89 90
-79 76 -88 82 -103 68 -8 -9 -25 -14 -36 -12 -17 4 -19 2 -9 -10 15 -18 40
-20 40 -2 0 6 9 1 19 -12 14 -18 20 -21 25 -10 3 8 4 3 2 -10 -3 -14 0 -29 7
-35 7 -6 10 -10 8 -8 -2 1 -13 -5 -23 -15 -19 -17 -21 -15 -20 38 0 15 -5 26
-13 26 -8 0 -12 -3 -10 -7 2 -4 -7 -12 -21 -18 -23 -11 -24 -11 -14 9 14 25 3
40 -13 19 -7 -8 -22 -15 -34 -16 -18 0 -20 2 -12 13 6 7 16 10 22 6 6 -4 7 -1
2 7 -4 7 -2 16 5 20 7 4 9 13 5 19 -5 9 -10 9 -20 1 -14 -12 -40 11 -27 25 4
5 -1 5 -10 2 -10 -4 -18 -2 -18 4 0 6 9 9 20 6 13 -3 25 2 35 16 14 19 18 20
38 8 12 -7 -7 17 -43 53 -35 36 -65 66 -65 65 0 0 -11 -5 -25 -10z m-412 -155
c-3 -14 -5 -12 -10 9 -3 19 -2 25 4 19 6 -6 8 -18 6 -28z m77 26 c3 -6 -1 -7
-9 -4 -18 7 -21 14 -7 14 6 0 13 -4 16 -10z m-175 -10 c0 -5 -8 -10 -17 -10
-15 0 -16 2 -3 10 19 12 20 12 20 0z m124 -6 c3 -8 2 -12 -4 -9 -6 3 -10 10
-10 16 0 14 7 11 14 -7z m-79 -4 c-3 -5 -12 -10 -18 -10 -7 0 -6 4 3 10 19 12
23 12 15 0z m229 -23 c38 5 46 3 46 -11 0 -9 -4 -16 -10 -16 -5 0 -10 -5 -10
-11 0 -5 6 -7 13 -3 9 5 9 3 -1 -7 -11 -12 -14 -12 -21 0 -5 8 -7 20 -4 28 3
7 0 13 -6 13 -6 0 -11 -5 -11 -11 0 -5 -5 -7 -10 -4 -6 3 -13 -1 -16 -9 -5
-12 -9 -13 -19 -3 -9 9 -10 14 -1 19 7 5 5 8 -6 8 -10 0 -18 2 -18 4 0 2 -3
13 -6 23 -6 15 -4 15 14 -3 17 -18 29 -21 66 -17z m-374 13 c0 -5 -8 -10 -17
-10 -15 0 -16 2 -3 10 19 12 20 12 20 0z m480 -18 c0 -10 -36 -9 -46 1 -4 4 5
7 19 7 15 0 27 -4 27 -8z m74 0 c2 -4 -4 -8 -15 -8 -10 0 -19 4 -19 8 0 4 6 8
14 8 8 0 17 -4 20 -8z m-604 -10 c0 -14 -11 -21 -26 -15 -21 8 -17 23 6 23 11
0 20 -4 20 -8z m80 -2 c0 -5 -7 -10 -16 -10 -8 0 -12 5 -9 10 3 6 10 10 16 10
5 0 9 -4 9 -10z m240 0 c0 -5 -8 -10 -17 -10 -15 0 -16 2 -3 10 19 12 20 12
20 0z m405 0 c-3 -5 -12 -10 -18 -10 -7 0 -6 4 3 10 19 12 23 12 15 0z m-1954
-39 c-11 -7 -10 -11 6 -19 12 -7 25 -7 34 -1 12 7 12 9 0 9 -11 0 -10 4 4 13
10 8 30 12 44 10 31 -5 30 -5 108 1 51 4 61 2 56 -10 -3 -7 -9 -11 -14 -8 -5
3 -9 0 -9 -5 0 -16 -16 -13 -34 5 -19 19 -42 9 -23 -10 6 -8 18 -11 24 -9 7 3
13 0 13 -7 0 -6 -5 -8 -10 -5 -6 3 -14 -4 -19 -17 -6 -13 -10 -17 -10 -10 -1
7 -5 10 -11 7 -5 -3 -10 1 -10 9 0 18 -2 19 -24 10 -8 -3 -12 -12 -9 -20 4
-11 0 -12 -18 -5 -13 5 -23 14 -22 19 1 6 -5 9 -15 7 -9 -2 -20 -4 -24 -4 -4
-1 -5 -9 -2 -18 4 -13 3 -14 -3 -5 -6 7 -14 12 -19 11 -21 -4 -28 2 -14 11 13
9 13 10 0 10 -8 0 -21 9 -27 19 -11 17 -9 20 10 23 28 5 36 -1 18 -11z m289
-9 c0 -10 -8 -22 -18 -29 -15 -9 -19 -8 -19 3 0 8 6 14 13 14 8 0 10 8 6 22
-3 14 -2 19 6 14 7 -4 12 -15 12 -24z m768 -12 c20 0 22 -18 2 -23 -11 -3 -18
0 -17 6 1 6 -8 16 -20 22 -13 7 -20 15 -16 18 3 4 14 0 23 -8 9 -8 22 -15 28
-15z m132 20 c0 -5 -4 -10 -10 -10 -5 0 -10 5 -10 10 0 6 5 10 10 10 6 0 10
-4 10 -10z m-1530 -4 c0 -2 -7 -6 -15 -10 -8 -3 -15 -1 -15 4 0 6 7 10 15 10
8 0 15 -2 15 -4z m238 -21 c-6 -13 -14 -23 -17 -20 -4 2 -13 0 -20 -4 -7 -5 4
-8 27 -8 35 0 39 2 34 21 -3 12 -1 18 3 14 4 -4 16 -3 26 3 11 5 19 6 20 2 0
-4 2 -16 4 -25 2 -10 -1 -18 -6 -18 -5 0 -9 5 -9 10 0 6 -5 10 -11 10 -6 0 -9
-6 -6 -14 4 -11 -6 -14 -46 -15 -45 0 -53 3 -63 24 -10 20 -9 22 4 17 11 -4
13 -1 7 7 -6 10 -3 11 13 2 15 -8 23 -7 32 4 18 22 21 18 8 -10z m1735 -11
c-3 -8 -9 -14 -14 -14 -4 0 -5 8 -2 18 5 13 4 15 -8 7 -13 -10 -29 -11 -54 -5
-5 2 6 6 25 9 43 9 60 4 53 -15z m24 4 c-3 -8 -6 -5 -6 6 -1 11 2 17 5 13 3
-3 4 -12 1 -19z m-1940 6 c-3 -3 -12 -4 -19 -1 -8 3 -5 6 6 6 11 1 17 -2 13
-5z m93 -4 c0 -5 -8 -10 -17 -10 -15 0 -16 2 -3 10 19 12 20 12 20 0z m-86
-22 c-10 -13 -20 -25 -21 -27 -1 -2 -1 6 0 17 0 11 4 19 8 16 4 -2 10 0 14 6
3 5 9 10 12 10 3 0 -2 -10 -13 -22z m43 -14 c-3 -3 -12 -4 -19 -1 -8 3 -5 6 6
6 11 1 17 -2 13 -5z m390 -18 c0 -8 -8 -11 -21 -8 -19 5 -19 6 0 13 10 4 19 8
20 8 0 1 1 -5 1 -13z m-231 -12 c26 6 27 5 12 -7 -10 -8 -14 -18 -10 -23 4 -4
0 -3 -9 4 -9 6 -19 9 -22 6 -10 -11 -58 -13 -51 -3 3 5 -2 9 -11 9 -9 0 -13
-5 -9 -11 3 -6 -9 -3 -27 7 -32 16 -33 16 -20 0 13 -16 12 -16 -15 -5 -50 22
-47 26 15 24 34 -1 68 -8 78 -16 14 -12 15 -12 9 0 -5 8 -3 16 5 22 8 4 16 3
20 -3 4 -6 19 -8 35 -4z m249 -24 c3 -5 -1 -10 -10 -10 -9 0 -13 5 -10 10 3 6
8 10 10 10 2 0 7 -4 10 -10z m-158 -6 c-3 -3 -12 -4 -19 -1 -8 3 -5 6 6 6 11
1 17 -2 13 -5z m2464 -356 l-12 -23 5 23 c2 12 0 22 -5 22 -5 0 -9 8 -9 17 0
16 1 16 17 1 14 -14 14 -21 4 -40z m-18 -19 c10 -18 15 -34 12 -37 -3 -3 -5 0
-5 7 0 8 -6 11 -16 7 -8 -3 -12 -2 -9 4 3 6 2 10 -2 10 -5 0 -9 9 -10 20 -2
29 9 24 30 -11z m27 -157 c0 -12 -3 -13 -12 -4 -6 6 -13 19 -14 27 -2 13 1 14
12 4 8 -6 14 -19 14 -27z m-1230 -63 c0 -5 -7 -9 -16 -9 -9 0 -12 5 -8 12 4 7
3 8 -4 4 -6 -4 -8 -14 -5 -23 4 -11 3 -14 -5 -9 -15 9 -15 29 0 44 12 12 38
-1 38 -19z m-1216 -54 c-4 -8 -10 -12 -15 -9 -11 6 -2 24 11 24 5 0 7 -7 4
-15z m-1104 -213 c0 -7 4 -11 9 -7 6 3 9 -3 8 -14 -1 -16 -4 -18 -15 -9 -10 9
-16 8 -22 -1 -6 -10 -11 -8 -21 10 -11 21 -11 23 3 11 11 -9 18 -10 23 -2 3 5
-1 13 -9 16 -9 3 -16 15 -16 25 0 18 1 18 20 2 11 -10 20 -23 20 -31z m2410
-29 c0 -10 -4 -14 -8 -8 -4 6 -11 13 -16 18 -5 4 -2 7 7 7 10 0 17 -8 17 -17z
m61 -1 c-7 -2 -18 1 -23 6 -8 8 -4 9 13 5 13 -4 18 -8 10 -11z m-1551 -21 c0
-5 -7 -11 -15 -15 -15 -5 -20 5 -8 17 9 10 23 9 23 -2z m-590 -201 c0 -5 -7
-10 -15 -10 -8 0 -15 5 -15 10 0 6 7 10 15 10 8 0 15 -4 15 -10z"/>
<path d="M2156 2467 c-18 -13 -17 -15 17 -19 21 -2 43 0 50 4 7 5 2 8 -15 8
-14 0 -28 5 -30 10 -2 7 -10 5 -22 -3z"/>
<path d="M2895 2616 c10 -14 19 -26 22 -26 7 0 -17 39 -28 46 -6 3 -3 -5 6
-20z"/>
<path d="M3717 2615 c3 -8 9 -12 14 -9 12 7 11 11 -5 17 -10 4 -13 1 -9 -8z"/>
<path d="M2614 2595 c-10 -8 -14 -15 -8 -15 6 0 17 7 24 15 16 19 9 19 -16 0z"/>
<path d="M2805 2591 c11 -13 19 -25 18 -27 -2 -2 0 -4 3 -3 4 0 11 -5 15 -13
5 -7 9 -8 9 -2 0 5 -15 23 -32 40 -21 19 -26 21 -13 5z"/>
<path d="M1154 2444 c-60 -58 -97 -98 -82 -89 22 14 30 14 47 3 12 -7 21 -18
21 -25 0 -8 21 0 52 19 28 17 79 42 112 54 51 19 57 24 39 30 -17 5 -20 10
-14 23 13 24 13 29 -7 49 -51 48 -50 48 -168 -64z"/>
<path d="M3182 2542 c-8 -6 -2 -9 18 -9 16 0 30 4 30 9 0 10 -31 10 -48 0z"/>
<path d="M2942 2505 c0 -16 2 -22 5 -12 2 9 2 23 0 30 -3 6 -5 -1 -5 -18z"/>
<path d="M3006 2522 c6 -4 13 -14 16 -22 3 -11 6 -9 10 6 4 15 0 20 -16 22
-11 0 -16 -2 -10 -6z"/>
<path d="M2603 2500 c-13 -5 -23 -15 -23 -22 0 -9 -3 -9 -10 2 -8 12 -10 9
-10 -13 0 -16 3 -26 8 -24 4 3 7 -8 8 -24 1 -32 34 -74 64 -82 16 -4 17 -1 10
19 -7 18 -6 22 5 17 8 -3 15 -1 15 5 0 9 21 8 75 -2 11 -2 28 1 37 6 13 6 16
5 12 -5 -3 -8 -26 -24 -52 -36 -26 -12 -36 -19 -22 -16 14 3 33 8 42 10 33 7
59 27 78 58 29 46 25 69 -5 32 -13 -16 -28 -26 -32 -21 -4 4 0 12 10 17 9 6
17 15 17 21 0 7 -5 6 -15 -2 -12 -10 -15 -10 -15 3 0 8 5 17 11 19 7 2 9 13 5
26 -7 21 -13 22 -99 21 -51 0 -102 -4 -114 -9z m169 -32 c-7 -7 -12 -8 -12 -2
0 14 12 26 19 19 2 -3 -1 -11 -7 -17z m-56 -4 c-4 -12 -2 -15 9 -10 11 4 15
-2 15 -20 0 -18 4 -24 13 -21 8 3 20 1 28 -4 16 -10 15 -10 -63 -13 -32 -1
-63 1 -70 6 -10 6 -8 8 5 9 9 1 22 3 27 4 6 1 15 3 22 4 12 1 2 15 -13 17 -5
1 -11 2 -14 3 -8 2 29 41 38 41 5 0 6 -7 3 -16z m74 -24 c0 -5 -7 -7 -15 -4
-8 4 -15 8 -15 10 0 2 7 4 15 4 8 0 15 -4 15 -10z m-135 -10 c3 -5 1 -10 -4
-10 -6 0 -11 5 -11 10 0 6 2 10 4 10 3 0 8 -4 11 -10z"/>
<path d="M3185 2490 c-3 -6 1 -7 9 -4 18 7 21 14 7 14 -6 0 -13 -4 -16 -10z"/>
<path d="M2985 2459 c-11 -16 -1 -19 13 -3 7 8 8 14 3 14 -5 0 -13 -5 -16 -11z"/>
<path d="M1395 2339 c-76 -11 -186 -64 -178 -85 3 -8 -2 -23 -11 -33 -18 -20
-12 -32 12 -24 14 5 15 3 5 -7 -9 -10 -15 -10 -26 -1 -8 6 -22 9 -31 5 -17 -6
-21 5 -8 22 4 6 -15 -13 -42 -40 -95 -98 -142 -262 -117 -405 19 -107 68 -196
150 -274 114 -107 215 -143 382 -135 85 4 106 9 171 40 75 36 168 111 150 122
-6 3 -12 0 -15 -6 -2 -7 -8 -10 -12 -6 -9 9 58 73 76 73 19 0 55 69 74 140 72
278 -116 570 -395 614 -74 12 -100 12 -185 0z m445 -184 c-8 -9 -7 -14 2 -18
7 -2 10 -7 7 -11 -3 -3 -16 6 -28 20 l-22 26 23 -8 c21 -6 22 -6 8 12 -14 18
-14 18 3 5 12 -10 14 -17 7 -26z m74 -83 c2 -4 -5 -9 -17 -9 -17 -2 -19 0 -7
7 18 12 18 12 24 2z m36 -202 c0 -5 -5 -10 -11 -10 -5 0 -7 5 -4 10 3 6 8 10
11 10 2 0 4 -4 4 -10z"/>
<path d="M3837 2340 c-69 -12 -184 -70 -241 -121 -140 -124 -195 -334 -137
-519 22 -71 67 -144 82 -135 5 4 9 1 9 -5 0 -6 5 -8 12 -4 7 4 8 3 4 -5 -4 -6
-13 -8 -19 -5 -7 4 11 -17 38 -45 58 -60 157 -114 242 -132 79 -16 214 -7 284
20 181 69 305 238 316 431 6 100 -6 169 -44 247 -33 68 -102 148 -115 135 -23
-23 -71 19 -53 47 8 14 -69 56 -135 75 -70 20 -181 27 -243 16z"/>
<path d="M1019 2313 c-13 -16 -12 -17 4 -4 9 7 17 15 17 17 0 8 -8 3 -21 -13z"/>
<path d="M4230 2246 c0 -2 8 -10 18 -17 15 -13 16 -12 3 4 -13 16 -21 21 -21
13z"/>
<path d="M1879 1553 c-13 -16 -12 -17 4 -4 9 7 17 15 17 17 0 8 -8 3 -21 -13z"/>
</g>
</svg>
